<?xml version="1.0" encoding="UTF-8"?>
<svg width="282px" height="79px" viewBox="0 0 282 79" version="1.1" xmlns="http://www.w3.org/2000/svg" xmlns:xlink="http://www.w3.org/1999/xlink">
    <!-- Generator: Sketch 50 (54983) - http://www.bohemiancoding.com/sketch -->
    <title>Group 3</title>
    <desc>Created with Sketch.</desc>
    <defs></defs>
    <g id="Page-1" stroke="none" stroke-width="1" fill="none" fill-rule="evenodd">
        <g id="登录-copy-2" transform="translate(-808.000000, -201.000000)">
            <g id="Group-3" transform="translate(808.500000, 201.000000)">
                <text id="Orchsym-API-Manager" font-family="PingFang-SC-Medium, PingFang SC" font-size="20" font-weight="400" line-spacing="30" fill="#4A4A4A">
                    <tspan x="73.8626445" y="72.5">Orchsym API Manager</tspan>
                </text>
                <g id="Group-2" transform="translate(0.148434, 0.320717)" fill="#1AD0A6" fill-rule="nonzero">
                    <path d="M53.0712,26.1765905 L56.133,27.9443216 L53.0712,22.6411284 L53.0712,26.1765905 Z M53.0712,26.1765905 L32.6395658,14.380381 L32.6395658,7.30945679 L59.1948,22.6411284 L59.1948,53.3044716 L32.6395658,68.6361432 L32.6395658,61.565219 L53.0712,49.7690095 L53.0712,26.1765905 Z M53.0712,49.7690095 L56.133,48.0012784 L53.0712,53.3044716 L53.0712,49.7690095 Z M56.133,48.0012784 L53.0712,53.3044716 L53.0712,49.7690095 L56.133,48.0012784 Z M53.0712,49.7690095 L53.0712,26.1765905 L32.6395658,14.380381 L32.6395658,7.30945679 L59.1948,22.6411284 L59.1948,53.3044716 L32.6395658,68.6361432 L32.6395658,61.565219 L53.0712,49.7690095 Z M53.0712,26.1765905 L53.0712,22.6411284 L56.133,27.9443216 L53.0712,26.1765905 Z M18.3708,46.2108758 L32.6395658,54.4489516 L32.6395658,61.5198758 L12.2472,49.7463379 L12.2472,26.1992621 L32.6395658,14.4257242 L32.6395658,21.4966484 L18.3708,29.7347242 L18.3708,46.2108758 Z M6.1236,53.2818 L32.6395658,68.5908 L32.6395658,75.6617242 L-2.27373675e-13,56.8172621 L-2.27373675e-13,19.1283379 L32.6395658,0.283875783 L32.6395658,7.3548 L6.1236,22.6638 L6.1236,53.2818 Z M32.6592,41.472 L46.9476,33.8904 L46.9476,46.7208 L32.6592,54.3024 L32.6592,41.472 Z" id="Combined-Shape"></path>
                </g>
                <text id="数聚蜂巢" font-family="PingFang-SC-Bold, PingFang SC" font-size="37" font-weight="bold" letter-spacing="-0.200000003" fill="#4A4A4A">
                    <tspan x="74.1373555" y="39.5">数聚蜂巢</tspan>
                </text>
            </g>
        </g>
    </g>
</svg>